<svg width="152" height="31" viewBox="0 0 152 31" fill="none" xmlns="http://www.w3.org/2000/svg">
<path d="M151.32 21.76H144V16H151.32V21.76Z" fill="#44D125"/>
<path d="M6.025 24H0.75L7.975 7.25H14.7L21.95 24H16.55L15.275 20.9H7.325L6.025 24ZM10.075 14.325L9.1 16.675H13.55L12.575 14.325L11.475 11.5H11.15L10.075 14.325ZM27.1531 24H22.4531V7.25H27.1531V24ZM38.9043 24H34.2043V11.475H28.2793V7.25H44.8043V11.475H38.9043V24ZM50.6395 24H45.9395V7.25H50.6395V13.475H58.4395V7.25H63.1395V24H58.4395V17.7H50.6395V24ZM79.5156 24H64.6406V7.25H79.5156V11.475H69.3406V13.475H79.1406V17.675H69.3406V19.775H79.5156V24ZM85.5516 24H80.8516V7.25H85.8516L90.5016 13.525L92.9516 17.375H93.2766L93.0516 13.725V7.25H97.7516V24H92.7516L87.8016 17.55L85.6766 14.25H85.3516L85.5516 17.45V24ZM109.51 24H104.81V11.475H98.8848V7.25H115.41V11.475H109.51V24ZM121.245 24H116.545V7.25H121.245V24ZM131.746 24.25C125.921 24.25 122.496 20.85 122.496 15.625C122.496 10.4 125.921 7 131.746 7C137.371 7 140.746 9.675 140.746 14.15V14.575H135.496V14.15C135.496 12.25 134.596 11.5 131.821 11.5C128.421 11.5 127.496 12.3 127.496 15.625C127.496 18.95 128.421 19.75 131.821 19.75C134.596 19.75 135.496 19 135.496 17.1V16.675H140.746V17.1C140.746 21.575 137.371 24.25 131.746 24.25Z" fill="white"/>
</svg>
